Patient4_TMGait_0pt6_02_left_45_EMG.mot
version=1
nRows=37
nColumns=33
inDegrees=no
endheader
time	1LAddLong	2LGlutMax	3LGlutMed	4LIliopsoas	5LSemiMemb	6LBicFemLong	7LRecFem	8LVastMed	9LVastLat	10LGasMed	11LTibAnt	12lTibPost	13LPeroneusLong	14LSol	15LExtDigLong	16LFlexDigLong	17RAddLong	18RGlutMax	19RGlutMed	20RIliopsoas	21RSemiMemb	22RBicFemLong	23RRecFem	24RVastMed	25RVastLat	26RGasMed	27RTibAnt	28RTibPost	29RPeroneusLong	30RSol	31RExtDigLong	32RFlexDigLong
55.337	0.051727	0.80994	0.075836	-0.001984	0.008087	-0.56564	-0.050201	0.02243	0.007935	-0.071411	0.11139	0.031586	-0.66269	-0.039978	-0.11551	-0.008698	-0.09079	0.18494	-0.063629	0.34988	0.019836	0.049438	0.62286	-0.079193	0.01297	0.006409	0.088501	-0.10971	-0.020294	0.25223	-0.001984	-0.015564
55.338	0.037384	0.79102	0.13138	-0.002747	0.034943	-0.37811	-0.098267	0.019684	0.042877	-0.13733	-0.049744	0.024414	0.54367	0.06897	-0.016479	-0.016479	-0.035858	0.1918	-0.10635	0.14236	0.027466	0.051575	0.62118	-0.076752	0.027618	0.000153	0.12848	-0.035095	0.016632	0.074005	-0.002136	-0.006409
55.339	0.025787	0.72494	0.15366	0.005951	-0.003052	-0.4071	-0.24262	0.02533	0.15366	-0.2359	-0.16113	0.006866	0.22385	0.10544	-0.098572	0.041809	-0.040283	0.23285	-0.20416	0.080719	0.049286	0.06424	0.61615	-0.088501	0.040588	-0.001831	0.068665	-0.10437	-0.007172	-0.013275	-0.005341	-0.019379
55.34	0.025482	0.56519	0.10651	0.005646	-0.045776	-0.011292	-0.29556	0.029755	0.23956	-0.33432	-0.023193	-0.003052	-0.33112	0.18387	0.16403	0.000458	-0.056763	0.22964	-0.35187	0.08667	0.050964	0.10986	0.56381	-0.1033	0.037384	-0.001831	-0.083008	0.006104	-0.112	-0.24063	-0.004272	-0.021667
55.341	0.018311	0.513	0.084991	-0.008392	-0.10254	0.14648	-0.16205	0.026245	0.30792	-0.3064	0.080109	-0.014648	-0.53574	0.16266	0.24139	-0.00351	-0.055389	0.23254	-0.31509	0.17334	0.023499	0.14069	0.5452	-0.10407	0.049438	0.00061	-0.09079	0.043182	-0.16769	-0.22018	-0.003662	-0.015564
55.342	0.006714	0.45075	0.025482	0.001068	-0.20569	0.19974	-0.16998	0.014954	0.22629	-0.1648	0.12466	-0.019684	-0.21606	0.10178	-0.13519	-0.015411	-0.040283	0.20142	-0.27756	0.15701	0.000305	0.1387	0.53131	-0.11337	0.046997	-0.013123	-0.052948	0.001678	-0.17014	0.006256	-0.00946	-0.026703
55.343	0.015564	0.38925	-0.13229	0.002289	-0.20187	0.29633	-0.20859	-0.002441	0.049133	-0.075073	0.11398	-0.03067	-0.17487	0.1712	-0.029297	-0.009308	-0.031891	0.19455	-0.4454	0.14206	-0.007935	0.15533	0.56213	-0.063934	0.039368	-0.011444	0.1001	-0.055237	-0.15167	0.26947	-0.012817	-0.024719
55.344	0.023041	0.33173	-0.16907	0.005035	-0.077972	0.18097	-0.18723	-0.003204	-0.21835	-0.20203	0.063171	-0.040741	-0.050049	0.061798	0.2562	-0.016937	-0.041962	0.091705	-0.55252	0.09964	0.000305	0.14252	0.51071	-0.016327	0.048523	-0.00061	0.30289	0.010681	-0.025635	0.26718	-0.004578	-0.013733
55.345	0.017548	0.44998	-0.22873	0.007629	-0.021667	0.19714	-0.21347	-0.007935	-0.33661	0.12451	-0.062866	-0.034637	0.21042	0.057373	0.039063	-0.043182	-0.045013	0.059509	-0.56152	0.077972	0.006561	0.13168	0.43259	0.01709	0.046387	-0.001526	0.56824	0.058594	-0.007324	0.19257	0.001221	-0.013275
55.346	0.032501	0.54596	-0.25726	-0.004883	-0.072021	0.24735	-0.27054	-0.007324	-0.21545	0.092621	-0.13901	-0.03006	0.22308	0.075226	-0.15335	-0.02533	-0.028687	0.051422	-0.4924	-0.11673	0.020294	0.075531	0.47897	0.00412	0.035553	-0.007324	0.53329	0.028076	-0.040588	-0.074158	-0.001831	-0.0177
55.347	0.041351	0.6163	-0.34668	0.017548	-0.12009	0.084229	-0.36041	-0.006714	-0.060272	0.15442	-0.043488	-0.042572	0.068817	0.012054	-0.23529	-0.036621	-0.019836	-0.05722	-0.5043	-0.16892	0.028687	-0.000153	0.54398	-0.044861	0.023499	-0.007324	0.21881	-0.000916	-0.035248	-0.19409	-0.000916	-0.014343
55.348	0.040588	0.63217	-0.25986	-0.003357	-0.031281	0.15533	-0.37918	-0.009003	-0.02533	0.34027	0.002899	-0.032196	-0.0737	0.062561	0.071259	-0.033112	0.004272	-0.14999	-0.74616	-0.15488	0.071564	-0.12177	0.56076	-0.048218	-0.024567	-0.000153	0.1265	0.001221	0.069122	-0.21347	-0.001221	-0.003815
55.349	0.027618	0.69672	-0.20203	0.011749	0.054474	0.007935	-0.38101	-0.012207	0.031128	0.62424	-0.018768	-0.034332	-0.007172	-0.036469	-0.10452	-0.023956	0.024109	-0.22522	-0.85159	-0.084076	0.06134	-0.1004	0.60577	-0.098114	-0.025024	0.00885	0.36118	-0.01297	0.14252	-0.16571	-0.003662	-0.008392
55.35	0.039063	0.83054	-0.16205	-0.001984	0.069733	0.011444	-0.43991	-0.015869	0.03418	0.51941	0.041199	-0.0383	0.018616	-0.18921	-0.28076	-0.014343	0.028687	-0.27679	-0.62546	-0.10025	0.045166	-0.065002	0.56564	-0.13641	-0.024719	0.01297	0.15457	-0.016632	0.13336	-0.14481	-0.003052	0.007629
55.351	0.011749	0.94772	-0.19134	-0.01236	0.031586	0.13748	-0.44937	-0.001831	0.053406	-0.094757	-0.023193	-0.023804	-0.036621	-0.23666	-0.22354	-0.02655	0.05188	-0.3363	-0.67978	-0.1387	-0.006409	-0.052643	0.5864	-0.24689	-0.017395	0.000153	0.04364	-0.018158	0.053558	-0.036926	-0.00412	-0.00473
55.352	0.005035	1.0657	-0.1416	-0.007629	-0.006714	0.005341	-0.47791	0.010071	0.12222	-0.24429	-0.080261	-0.020294	-0.080261	-0.16403	-0.053406	0.003357	0.036621	-0.37415	-0.71259	-0.052643	-0.040894	-0.062561	0.58624	-0.25787	-0.02655	-0.003204	-0.030212	-0.015106	-0.083313	0.032349	-0.009766	-0.010986
55.353	0.001678	1.0968	-0.14358	0.012207	-0.0354	-0.079956	-0.4718	0.031433	0.14435	-0.28549	-0.03418	-0.012207	-0.12009	-0.07309	0.13001	0.002441	-0.037994	-0.43457	-0.59113	0.098419	-0.060272	-0.0383	0.54123	-0.27451	-0.006409	-0.007172	-0.39902	-0.001984	-0.11551	0.028839	-0.005646	-0.010986
55.354	0.000916	1.1046	-0.13733	-0.028229	-0.040436	0.018768	-0.4776	0.032959	0.15656	-0.23285	-0.022125	-0.013275	-0.10941	-0.007935	0.30395	0.002899	-0.10666	-0.47623	-0.54031	0.19882	-0.080109	-0.031433	0.58395	-0.21439	-0.017548	-0.001831	-0.70786	-0.005646	-0.046387	-0.09613	-0.006714	-0.007629
55.355	-0.001068	1.0834	0.10651	-0.019989	-0.016937	0.45563	-0.44647	0.026855	0.19806	0.093384	-0.001068	-0.003662	-0.085907	-0.003662	0.55756	0.016174	-0.10681	-0.46692	-0.35767	0.18616	-0.045013	0.006866	0.5954	-0.16983	-0.010071	-0.002441	-0.82779	-0.005646	-0.011139	-0.13641	-0.005798	-0.009155
55.356	-0.012512	0.96176	0.12451	-0.005188	-0.001984	0.42923	-0.43045	-0.003967	0.17029	0.13153	0.010529	-0.014191	0.030975	-0.09964	0.11765	0.014038	-0.05249	-0.45044	-0.18601	0.21851	-0.027008	0.036316	0.50278	-0.11505	0.004272	0.002441	-0.57312	-0.006104	-0.02655	-0.14771	-0.006561	-0.000916
55.357	-0.014343	0.85251	0.14694	0.018158	-0.032349	0.48599	-0.41794	-0.016022	0.033112	-0.15656	0.025177	-0.02243	0.071259	-0.17654	0.21027	0.013275	0.022278	-0.58411	-0.44449	0.13534	-0.018311	0.031738	0.54336	-0.090485	0.001373	0.009003	-0.33508	-0.011139	0.048523	-0.14572	-0.004883	-0.00061
55.358	-0.013123	0.71457	0.072632	0.022888	-0.083313	0.77606	-0.41565	-0.001831	-0.21713	-0.11658	0.013275	-0.000916	-0.00061	-0.103	0.00885	0.017548	0.085297	-0.63583	-0.53528	0.014648	0.012054	0.059357	0.46585	-0.098419	0.009308	0.009766	-0.16205	-0.010529	0.032043	-0.096741	-0.008545	-0.011597
55.359	-0.012665	0.5072	-0.030975	0.006866	-0.09079	0.88806	-0.44037	-0.010834	-0.18707	-0.06012	0.030823	0.008698	-0.20218	-0.056458	-0.063019	0.014038	0.13611	-0.67642	-0.74585	-0.044861	0.048828	0.069885	0.42023	-0.10727	0.01709	0.00351	0.098267	-0.009766	-0.039825	0.031891	-0.004578	-0.003815
55.36	-0.013123	0.44662	-0.11276	0	-0.083313	0.80734	-0.42923	-0.026855	-0.074158	0.02594	-0.016022	0.011444	-0.23193	0.029907	-0.23438	0.013733	0.14526	-0.72083	-0.63004	-0.14343	0.076599	0.080566	0.30868	-0.031128	0.026245	-0.001831	0.15503	-0.011139	-0.081635	0.10742	0	-0.00946
55.361	-0.004883	0.30197	-0.14893	0.009003	-0.061951	0.19608	-0.34103	-0.019379	0.010834	0.074005	0.015259	-0.000916	0.2243	-0.030365	-0.39703	0.019684	0.12512	-0.78049	-0.94879	-0.045776	0.075378	0.10407	0.22217	-0.035248	0.049591	-0.000916	0.1152	-0.014801	-0.064087	0.082245	-0.006866	-0.006409
55.362	-0.011444	0.24384	-0.062714	-0.016174	-0.027924	-0.39963	-0.33646	-0.007172	0.11307	-0.003204	0.021515	-0.002594	0.19608	-0.16113	-0.5249	0.009918	0.049896	-0.82947	-0.952	0.033264	0.074158	0.10498	0.29648	-0.010223	0.028229	0.001526	0.11093	-0.007172	-0.071259	0.049744	-0.006714	-0.014038
55.363	-0.019684	0.14328	-0.11398	-0.014191	-0.05249	-0.66361	-0.27893	-0.003052	0.20828	-0.030975	0.032196	0.004272	-0.24307	-0.10315	-0.20554	0.003967	0	-0.91721	-1.0004	0.24719	0.052032	0.079041	0.43778	-0.013123	0.027924	0.001526	-0.025482	-0.012665	-0.057983	0.057068	-0.007629	-0.011597
55.364	-0.035706	-0.02594	-0.18066	-0.006866	-0.13657	-0.37201	-0.27725	0.005798	0.19409	0.001221	-0.028839	-0.003815	0.80948	0.068359	0.29312	0.018616	-0.028534	-0.96237	-0.84824	0.24078	0.033875	0.075378	0.60455	-0.048981	0.001526	0.003815	-0.18921	-0.009308	0.001831	0.02121	-0.009766	-0.007019
55.365	-0.031586	-0.035248	-0.087891	0.015411	-0.21469	-0.78751	-0.31906	0.009613	0.18448	0.01358	-0.045471	-0.000763	0.51956	0.21561	0.46753	0.029297	-0.045776	-0.99182	-0.59189	0.053711	0.046692	0.086823	0.68146	-0.010834	-0.006714	0.003662	-0.19119	-0.005188	0.044098	-0.010986	-0.005493	-0.000763
55.366	-0.011749	0.05127	0.046692	0.012054	-0.18005	-1.1273	-0.34744	0.001984	0.23956	-0.080414	0.019989	0.00885	1.214	0.30273	0.043945	0.029297	0.009613	-0.90912	-0.48813	-0.034637	0.037384	0.095825	0.73654	-0.050507	-0.013885	-0.005646	-0.035248	-0.008545	-0.093231	-0.002136	-0.005341	0.001221
55.367	0.003662	-0.032654	0.045929	0.035095	-0.001831	-0.78888	-0.37888	-0.006256	0.23926	-0.062866	0.04776	0.013428	0.84061	0.13504	-0.12909	0.024567	0.042877	-0.95383	-0.53513	0.015411	0.009003	0.062103	0.71793	-0.08606	-0.02182	-0.000916	0.12726	-0.011749	-0.16953	-0.009308	-0.008392	0.00061
55.368	0.024414	-0.14145	-0.001678	0.012512	0.053711	-0.43839	-0.38498	-0.003967	0.10666	0.013275	-0.026703	0.012665	0.042114	-0.3595	-0.068207	0.019226	0.076752	-0.96039	-0.44891	0.050812	-0.005341	0.050354	0.4657	-0.10544	-0.024261	-0.007172	0.27893	-0.00824	-0.17014	0.011902	-0.006714	0.00351
55.369	0.006866	-0.22095	-0.14694	0.010071	0.10284	-0.43411	-0.45731	0.004883	0.013733	0.00824	-0.048981	-0.005341	-0.13641	-0.37964	-0.10696	0.000153	0.04837	-0.92499	-0.25742	-0.005798	-0.007019	0.064545	0.31342	-0.13916	-0.024719	-0.00061	0.44495	-0.011597	-0.00473	-0.016785	-0.005188	-0.001068
55.37	-0.006866	-0.24063	-0.23819	-0.026703	0.003815	-0.23758	-0.45959	0.017242	0.13794	-0.048523	-0.13153	-0.009003	-0.46783	-0.20203	0.29495	-0.003815	0.069733	-0.87524	-0.45975	-0.029755	-0.0177	0.063782	0.37598	-0.14069	-0.031738	0.007782	0.62286	-0.006409	-0.33432	-0.024261	-0.008545	-0.002899
55.371	-0.002747	-0.32532	-0.24918	-0.018005	-0.032654	0.027771	-0.35614	-0.002289	0.06073	-0.06073	-0.10452	-0.002747	0.033722	-0.24384	-0.041504	-0.00351	0.10437	-0.94299	-0.77759	0.00885	-0.02594	0.075836	0.27588	-0.15305	-0.012817	0.003662	0.21957	-0.007629	-0.010834	-0.023499	-0.010529	-0.001373
55.372	-0.015411	-0.31433	-0.002899	-0.006409	-0.017395	0.19516	-0.19989	-0.003967	-0.33997	0.013275	-0.037231	-0.005341	-0.20584	-0.24048	-0.15762	-0.013428	0.11185	-0.96573	-0.79865	0.061035	-0.037537	0.063171	0.27054	-0.24124	-0.019073	0.003204	-0.006714	-0.008698	0.11292	0.011749	-0.008087	-0.005188
55.373	-0.030365	-0.20752	0.055237	0.009613	0.015717	0.35004	-0.13077	0.008545	-0.51971	0.074005	0.027008	-0.00473	-0.05661	-0.2684	-0.25375	-0.019226	0.11414	-0.9845	-0.79193	0.22553	-0.059204	0.055695	0.28198	-0.23727	-0.006714	0.001221	-0.28091	-0.013733	0.10025	-0.023804	-0.007172	-0.000916
